<svg version="1.1" viewBox="0.0 0.0 752.0 439.0" fill="none" stroke="none" stroke-linecap="square" stroke-miterlimit="10" width="752" height="439" xmlns:xlink="http://www.w3.org/1999/xlink" xmlns="http://www.w3.org/2000/svg"><path fill="#ffffff" d="M0 0L752.0 0L752.0 439.0L0 439.0L0 0Z" fill-rule="nonzero"/><path stroke="#cccccc" stroke-width="1.0" stroke-linecap="butt" d="M137.5 309.5L730.5 309.5" fill-rule="nonzero"/><path stroke="#cccccc" stroke-width="1.0" stroke-linecap="butt" d="M137.5 230.5L730.5 230.5" fill-rule="nonzero"/><path stroke="#cccccc" stroke-width="1.0" stroke-linecap="butt" d="M137.5 150.5L730.5 150.5" fill-rule="nonzero"/><path stroke="#cccccc" stroke-width="1.0" stroke-linecap="butt" d="M137.5 71.5L730.5 71.5" fill-rule="nonzero"/><clipPath id="id_0"><path d="M137.95 71.583336L730.05 71.583336L730.05 349.05L137.95 349.05L137.95 71.583336Z" clip-rule="nonzero"/></clipPath><path stroke="#000000" stroke-width="2.0" stroke-linecap="butt" stroke-opacity="0.0" clip-path="url(#id_0)" d="M274.0 349.0L186.0 349.0L186.0 82.0C186.0 80.89543 186.89543 80.0 188.0 80.0L272.0 80.0C273.10458 80.0 274.0 80.89543 274.0 82.0Z" fill-rule="nonzero"/><path fill="#4285f4" clip-path="url(#id_0)" d="M274.0 349.0L186.0 349.0L186.0 82.0C186.0 80.89543 186.89543 80.0 188.0 80.0L272.0 80.0C273.10458 80.0 274.0 80.89543 274.0 82.0Z" fill-rule="nonzero"/><path stroke="#000000" stroke-width="2.0" stroke-linecap="butt" stroke-opacity="0.0" clip-path="url(#id_0)" d="M410.0 349.0L322.0 349.0L322.0 111.0C322.0 109.89543 322.89542 109.0 324.0 109.0L408.0 109.0C409.10458 109.0 410.0 109.89543 410.0 111.0Z" fill-rule="nonzero"/><path fill="#4285f4" clip-path="url(#id_0)" d="M410.0 349.0L322.0 349.0L322.0 111.0C322.0 109.89543 322.89542 109.0 324.0 109.0L408.0 109.0C409.10458 109.0 410.0 109.89543 410.0 111.0Z" fill-rule="nonzero"/><path stroke="#000000" stroke-width="2.0" stroke-linecap="butt" stroke-opacity="0.0" clip-path="url(#id_0)" d="M546.0 349.0L458.0 349.0L458.0 150.0C458.0 148.89543 458.89542 148.0 460.0 148.0L544.0 148.0C545.10455 148.0 546.0 148.89543 546.0 150.0Z" fill-rule="nonzero"/><path fill="#4285f4" clip-path="url(#id_0)" d="M546.0 349.0L458.0 349.0L458.0 150.0C458.0 148.89543 458.89542 148.0 460.0 148.0L544.0 148.0C545.10455 148.0 546.0 148.89543 546.0 150.0Z" fill-rule="nonzero"/><path stroke="#000000" stroke-width="2.0" stroke-linecap="butt" stroke-opacity="0.0" clip-path="url(#id_0)" d="M682.0 349.0L594.0 349.0L594.0 186.0C594.0 184.89543 594.89545 184.0 596.0 184.0L680.0 184.0C681.10455 184.0 682.0 184.89543 682.0 186.0Z" fill-rule="nonzero"/><path fill="#4285f4" clip-path="url(#id_0)" d="M682.0 349.0L594.0 349.0L594.0 186.0C594.0 184.89543 594.89545 184.0 596.0 184.0L680.0 184.0C681.10455 184.0 682.0 184.89543 682.0 186.0Z" fill-rule="nonzero"/><path fill="#000000" d="M399.28125 411.89374Q398.40625 412.64374 397.57812 412.95624Q396.76562 413.26874 395.84375 413.26874Q394.29688 413.26874 393.46875 412.51874Q392.65625 411.7531 392.65625 410.58124Q392.65625 409.90936 392.96875 409.34686Q393.28125 408.76874 393.78125 408.425Q394.28125 408.08124 394.92188 407.90936Q395.39062 407.78436 396.32812 407.675Q398.23438 407.4406 399.14062 407.1281Q399.15625 406.8 399.15625 406.70624Q399.15625 405.7531 398.70312 405.34686Q398.09375 404.8156 396.90625 404.8156Q395.78125 404.8156 395.25 405.20624Q394.71875 405.59686 394.46875 406.59686L392.92188 406.3781Q393.14062 405.3781 393.60938 404.76874Q394.09375 404.15936 395.0 403.83124Q395.92188 403.5031 397.14062 403.5031Q398.32812 403.5031 399.07812 403.78436Q399.82812 404.0656 400.17188 404.5031Q400.53125 404.925 400.67188 405.5656Q400.75 405.97186 400.75 407.03436L400.75 409.14374Q400.75 411.34686 400.84375 411.9406Q400.95312 412.51874 401.25 413.05L399.59375 413.05Q399.34375 412.55 399.28125 411.89374ZM399.14062 408.3625Q398.28125 408.72186 396.5625 408.95624Q395.59375 409.09686 395.1875 409.28436Q394.78125 409.45624 394.5625 409.8Q394.34375 410.1281 394.34375 410.55Q394.34375 411.175 394.8125 411.59686Q395.29688 412.01874 396.21875 412.01874Q397.14062 412.01874 397.84375 411.6281Q398.5625 411.22186 398.89062 410.53436Q399.14062 409.9875 399.14062 408.9406L399.14062 408.3625ZM403.17188 413.05L403.17188 403.72186L404.59375 403.72186L404.59375 405.1281Q405.14062 404.14374 405.59375 403.83124Q406.0625 403.5031 406.60938 403.5031Q407.42188 403.5031 408.23438 404.01874L407.70312 405.4875Q407.10938 405.14374 406.53125 405.14374Q406.01562 405.14374 405.59375 405.45624Q405.1875 405.76874 405.01562 406.3156Q404.75 407.15936 404.75 408.15936L404.75 413.05L403.17188 413.05ZM408.89062 413.83124L410.4375 414.05Q410.53125 414.76874 410.96875 415.09686Q411.5625 415.53436 412.57812 415.53436Q413.67188 415.53436 414.26562 415.08124Q414.875 414.64374 415.07812 413.8625Q415.20312 413.3781 415.20312 411.83124Q414.15625 413.05 412.60938 413.05Q410.6875 413.05 409.625 411.65936Q408.57812 410.26874 408.57812 408.33124Q408.57812 406.9875 409.0625 405.8625Q409.54688 404.7375 410.46875 404.1281Q411.39062 403.5031 412.625 403.5031Q414.28125 403.5031 415.34375 404.84686L415.34375 403.72186L416.8125 403.72186L416.8125 411.78436Q416.8125 413.97186 416.35938 414.8781Q415.92188 415.78436 414.95312 416.3Q414.0 416.83124 412.59375 416.83124Q410.92188 416.83124 409.89062 416.08124Q408.85938 415.33124 408.89062 413.83124ZM410.20312 408.22186Q410.20312 410.05 410.9375 410.89374Q411.67188 411.7375 412.76562 411.7375Q413.85938 411.7375 414.59375 410.90936Q415.32812 410.0656 415.32812 408.26874Q415.32812 406.55 414.5625 405.6906Q413.8125 404.8156 412.73438 404.8156Q411.6875 404.8156 410.9375 405.675Q410.20312 406.53436 410.20312 408.22186ZM425.29688 413.05L425.29688 411.675Q424.21875 413.26874 422.34375 413.26874Q421.51562 413.26874 420.79688 412.95624Q420.07812 412.6281 419.73438 412.15936Q419.39062 411.675 419.25 410.97186Q419.15625 410.5031 419.15625 409.5031L419.15625 403.72186L420.73438 403.72186L420.73438 408.89374Q420.73438 410.1281 420.82812 410.5656Q420.98438 411.1906 421.46875 411.55Q421.95312 411.89374 422.65625 411.89374Q423.375 411.89374 424.0 411.53436Q424.625 411.175 424.875 410.55Q425.14062 409.90936 425.14062 408.72186L425.14062 403.72186L426.71875 403.72186L426.71875 413.05L425.29688 413.05ZM429.1875 413.05L429.1875 403.72186L430.60938 403.72186L430.60938 405.01874Q431.04688 404.34686 431.76562 403.925Q432.5 403.5031 433.4375 403.5031Q434.46875 403.5031 435.125 403.9406Q435.79688 404.3625 436.0625 405.14374Q437.17188 403.5031 438.95312 403.5031Q440.34375 403.5031 441.07812 404.28436Q441.82812 405.05 441.82812 406.64374L441.82812 413.05L440.26562 413.05L440.26562 407.175Q440.26562 406.22186 440.10938 405.8Q439.95312 405.3781 439.54688 405.1281Q439.14062 404.8781 438.59375 404.8781Q437.60938 404.8781 436.95312 405.53436Q436.3125 406.1906 436.3125 407.6281L436.3125 413.05L434.73438 413.05L434.73438 406.9875Q434.73438 405.925 434.34375 405.40936Q433.95312 404.8781 433.07812 404.8781Q432.40625 404.8781 431.84375 405.2375Q431.28125 405.58124 431.01562 406.2531Q430.76562 406.925 430.76562 408.20624L430.76562 413.05L429.1875 413.05ZM449.57812 410.05L451.21875 410.2531Q450.82812 411.675 449.78125 412.47186Q448.73438 413.26874 447.10938 413.26874Q445.0625 413.26874 443.85938 412.0031Q442.65625 410.7375 442.65625 408.45624Q442.65625 406.1125 443.85938 404.8156Q445.07812 403.5031 447.01562 403.5031Q448.89062 403.5031 450.07812 404.78436Q451.26562 406.05 451.26562 408.3625Q451.26562 408.5031 451.25 408.78436L444.29688 408.78436Q444.375 410.33124 445.15625 411.14374Q445.95312 411.95624 447.10938 411.95624Q447.98438 411.95624 448.59375 411.5031Q449.21875 411.05 449.57812 410.05ZM444.375 407.4875L449.59375 407.4875Q449.48438 406.3156 449.0 405.72186Q448.23438 404.8 447.03125 404.8Q445.95312 404.8 445.20312 405.53436Q444.46875 406.26874 444.375 407.4875ZM453.1875 413.05L453.1875 403.72186L454.60938 403.72186L454.60938 405.05Q455.64062 403.5031 457.57812 403.5031Q458.42188 403.5031 459.125 403.8156Q459.84375 404.1125 460.1875 404.6125Q460.54688 405.09686 460.6875 405.76874Q460.76562 406.20624 460.76562 407.3156L460.76562 413.05L459.1875 413.05L459.1875 407.3781Q459.1875 406.40936 459.0 405.925Q458.82812 405.4406 458.34375 405.15936Q457.875 404.8781 457.25 404.8781Q456.23438 404.8781 455.5 405.51874Q454.76562 406.15936 454.76562 407.95624L454.76562 413.05L453.1875 413.05ZM466.64062 411.6281L466.875 413.03436Q466.20312 413.175 465.67188 413.175Q464.8125 413.175 464.32812 412.90936Q463.85938 412.6281 463.67188 412.1906Q463.48438 411.7375 463.48438 410.3156L463.48438 404.9406L462.3125 404.9406L462.3125 403.72186L463.48438 403.72186L463.48438 401.40936L465.04688 400.45624L465.04688 403.72186L466.64062 403.72186L466.64062 404.9406L465.04688 404.9406L465.04688 410.40936Q465.04688 411.08124 465.125 411.28436Q465.21875 411.47186 465.40625 411.58124Q465.59375 411.6906 465.95312 411.6906Q466.20312 411.6906 466.64062 411.6281ZM467.54688 410.26874L469.125 410.01874Q469.25 410.95624 469.84375 411.45624Q470.45312 411.95624 471.53125 411.95624Q472.625 411.95624 473.15625 411.51874Q473.6875 411.0656 473.6875 410.47186Q473.6875 409.9406 473.21875 409.6281Q472.89062 409.425 471.59375 409.09686Q469.85938 408.65936 469.1875 408.34686Q468.51562 408.01874 468.15625 407.45624Q467.8125 406.8781 467.8125 406.1906Q467.8125 405.5656 468.09375 405.03436Q468.39062 404.5031 468.875 404.15936Q469.25 403.8781 469.89062 403.6906Q470.53125 403.5031 471.25 403.5031Q472.35938 403.5031 473.1875 403.83124Q474.01562 404.14374 474.40625 404.6906Q474.8125 405.22186 474.95312 406.1281L473.40625 406.33124Q473.29688 405.6125 472.79688 405.20624Q472.29688 404.8 471.375 404.8Q470.28125 404.8 469.8125 405.15936Q469.34375 405.51874 469.34375 406.0031Q469.34375 406.3156 469.54688 406.5656Q469.73438 406.8156 470.14062 406.9875Q470.39062 407.0656 471.54688 407.39374Q473.21875 407.83124 473.875 408.1281Q474.54688 408.40936 474.92188 408.95624Q475.3125 409.5031 475.3125 410.3Q475.3125 411.09686 474.84375 411.8Q474.39062 412.5031 473.51562 412.89374Q472.64062 413.26874 471.54688 413.26874Q469.71875 413.26874 468.76562 412.51874Q467.8125 411.7531 467.54688 410.26874Z" fill-rule="nonzero"/><path fill="#000000" d="M34.278114 237.72292Q31.684362 237.72292 30.434362 236.26979Q29.403112 235.06667 29.403112 233.34792Q29.403112 231.41042 30.668737 230.19167Q31.934362 228.97292 34.153114 228.97292Q35.94999 228.97292 36.98124 229.51979Q38.01249 230.05104 38.590614 231.08229Q39.16874 232.11354 39.16874 233.34792Q39.16874 235.30104 37.91874 236.51979Q36.653114 237.72292 34.278114 237.72292ZM34.278114 236.09792Q36.07499 236.09792 36.965614 235.31667Q37.85624 234.53542 37.85624 233.34792Q37.85624 232.16042 36.965614 231.37917Q36.059364 230.59792 34.23124 230.59792Q32.496864 230.59792 31.606237 231.39479Q30.715612 232.17604 30.715612 233.34792Q30.715612 234.53542 31.606237 235.31667Q32.496864 236.09792 34.278114 236.09792ZM42.528114 227.12917L29.621862 227.12917L29.621862 225.69167L30.824987 225.69167Q30.121862 225.17604 29.762487 224.53542Q29.403112 223.89479 29.403112 222.98854Q29.403112 221.78542 30.028112 220.87917Q30.637487 219.95729 31.762487 219.48854Q32.871864 219.01979 34.215614 219.01979Q35.63749 219.01979 36.79374 219.53542Q37.934364 220.05104 38.559364 221.03542Q39.16874 222.01979 39.16874 223.09792Q39.16874 223.87917 38.840614 224.51979Q38.496864 225.14479 37.98124 225.55104L42.528114 225.55104L42.528114 227.12917ZM34.340614 225.69167Q36.13749 225.69167 36.996864 224.97292Q37.85624 224.23854 37.85624 223.20729Q37.85624 222.14479 36.965614 221.39479Q36.07499 220.64479 34.19999 220.64479Q32.41874 220.64479 31.528112 221.37917Q30.637487 222.11354 30.637487 223.12917Q30.637487 224.14479 31.590612 224.92604Q32.528114 225.69167 34.340614 225.69167ZM36.16874 217.76979L35.91874 216.19167Q36.85624 216.06667 37.35624 215.47292Q37.85624 214.86354 37.85624 213.78542Q37.85624 212.69167 37.41874 212.16042Q36.965614 211.62917 36.371864 211.62917Q35.840614 211.62917 35.528114 212.09792Q35.32499 212.42604 34.996864 213.72292Q34.559364 215.45729 34.246864 216.12917Q33.91874 216.80104 33.35624 217.16042Q32.778114 217.50417 32.090614 217.50417Q31.465612 217.50417 30.934362 217.22292Q30.403112 216.92604 30.059362 216.44167Q29.778112 216.06667 29.590612 215.42604Q29.403112 214.78542 29.403112 214.06667Q29.403112 212.95729 29.731237 212.12917Q30.043737 211.30104 30.590612 210.91042Q31.121862 210.50417 32.028114 210.36354L32.23124 211.91042Q31.512487 212.01979 31.106237 212.51979Q30.699987 213.01979 30.699987 213.94167Q30.699987 215.03542 31.059362 215.50417Q31.418737 215.97292 31.903112 215.97292Q32.215614 215.97292 32.465614 215.76979Q32.715614 215.58229 32.88749 215.17604Q32.965614 214.92604 33.29374 213.76979Q33.73124 212.09792 34.028114 211.44167Q34.309364 210.76979 34.85624 210.39479Q35.403114 210.00417 36.19999 210.00417Q36.996864 210.00417 37.69999 210.47292Q38.403114 210.92604 38.79374 211.80104Q39.16874 212.67604 39.16874 213.76979Q39.16874 215.59792 38.41874 216.55104Q37.653114 217.50417 36.16874 217.76979ZM39.16874 209.31667L25.840612 205.58229L25.840612 204.31667L39.16874 208.03542L39.16874 209.31667ZM36.16874 203.76979L35.91874 202.19167Q36.85624 202.06667 37.35624 201.47292Q37.85624 200.86354 37.85624 199.78542Q37.85624 198.69167 37.41874 198.16042Q36.965614 197.62917 36.371864 197.62917Q35.840614 197.62917 35.528114 198.09792Q35.32499 198.42604 34.996864 199.72292Q34.559364 201.45729 34.246864 202.12917Q33.91874 202.80104 33.35624 203.16042Q32.778114 203.50417 32.090614 203.50417Q31.465612 203.50417 30.934362 203.22292Q30.403112 202.92604 30.059362 202.44167Q29.778112 202.06667 29.590612 201.42604Q29.403112 200.78542 29.403112 200.06667Q29.403112 198.95729 29.731237 198.12917Q30.043737 197.30104 30.590612 196.91042Q31.121862 196.50417 32.028114 196.36354L32.23124 197.91042Q31.512487 198.01979 31.106237 198.51979Q30.699987 199.01979 30.699987 199.94167Q30.699987 201.03542 31.059362 201.50417Q31.418737 201.97292 31.903112 201.97292Q32.215614 201.97292 32.465614 201.76979Q32.715614 201.58229 32.88749 201.17604Q32.965614 200.92604 33.29374 199.76979Q33.73124 198.09792 34.028114 197.44167Q34.309364 196.76979 34.85624 196.39479Q35.403114 196.00417 36.19999 196.00417Q36.996864 196.00417 37.69999 196.47292Q38.403114 196.92604 38.79374 197.80104Q39.16874 198.67604 39.16874 199.76979Q39.16874 201.59792 38.41874 202.55104Q37.653114 203.50417 36.16874 203.76979Z" fill-rule="nonzero"/><path fill="#000000" d="M122.41875 313.4119L121.37187 313.4119L121.37187 306.69315Q120.98125 307.05252 120.35625 307.42752Q119.74687 307.7869 119.2625 307.95877L119.2625 306.94315Q120.1375 306.52127 120.79375 305.94315Q121.46562 305.3494 121.74687 304.7869L122.41875 304.7869L122.41875 313.4119ZM125.45 309.17752Q125.45 307.64627 125.7625 306.7244Q126.075 305.7869 126.68437 305.2869Q127.30937 304.7869 128.24687 304.7869Q128.93437 304.7869 129.45 305.06815Q129.98125 305.3494 130.325 305.88065Q130.66875 306.39627 130.85625 307.14627Q131.04375 307.89627 131.04375 309.17752Q131.04375 310.69315 130.73125 311.61502Q130.43437 312.5369 129.80937 313.05252Q129.2 313.55252 128.24687 313.55252Q127.0125 313.55252 126.29375 312.6619Q125.45 311.5994 125.45 309.17752ZM126.52812 309.17752Q126.52812 311.2869 127.02812 311.99002Q127.52812 312.69315 128.24687 312.69315Q128.98125 312.69315 129.46562 311.99002Q129.96562 311.2869 129.96562 309.17752Q129.96562 307.05252 129.46562 306.36502Q128.98125 305.6619 128.23125 305.6619Q127.5125 305.6619 127.075 306.27127Q126.52812 307.05252 126.52812 309.17752Z" fill-rule="nonzero"/><path fill="#000000" d="M105.41875 234.13571L104.37187 234.13571L104.37187 227.41696Q103.98125 227.77634 103.35625 228.15134Q102.74687 228.51071 102.2625 228.68259L102.2625 227.66696Q103.1375 227.24509 103.79375 226.66696Q104.46562 226.07321 104.74687 225.51071L105.41875 225.51071L105.41875 234.13571ZM109.0125 234.13571L109.0125 232.93259L110.21562 232.93259L110.21562 234.13571Q110.21562 234.79196 109.98125 235.19821Q109.74687 235.62009 109.24687 235.83884L108.95 235.38571Q109.27812 235.24509 109.43437 234.94821Q109.59062 234.66696 109.62187 234.13571L109.0125 234.13571ZM111.45 229.90134Q111.45 228.37009 111.7625 227.44821Q112.075 226.51071 112.68437 226.01071Q113.30937 225.51071 114.24687 225.51071Q114.93437 225.51071 115.45 225.79196Q115.98125 226.07321 116.325 226.60446Q116.66875 227.12009 116.85625 227.87009Q117.04375 228.62009 117.04375 229.90134Q117.04375 231.41696 116.73125 232.33884Q116.43437 233.26071 115.80937 233.77634Q115.2 234.27634 114.24687 234.27634Q113.0125 234.27634 112.29375 233.38571Q111.45 232.32321 111.45 229.90134ZM112.52812 229.90134Q112.52812 232.01071 113.02812 232.71384Q113.52812 233.41696 114.24687 233.41696Q114.98125 233.41696 115.46562 232.71384Q115.96562 232.01071 115.96562 229.90134Q115.96562 227.77634 115.46562 227.08884Q114.98125 226.38571 114.23125 226.38571Q113.5125 226.38571 113.075 226.99509Q112.52812 227.77634 112.52812 229.90134ZM118.45 229.90134Q118.45 228.37009 118.7625 227.44821Q119.075 226.51071 119.68437 226.01071Q120.30937 225.51071 121.24687 225.51071Q121.93437 225.51071 122.45 225.79196Q122.98125 226.07321 123.325 226.60446Q123.66875 227.12009 123.85625 227.87009Q124.04375 228.62009 124.04375 229.90134Q124.04375 231.41696 123.73125 232.33884Q123.43437 233.26071 122.80937 233.77634Q122.2 234.27634 121.24687 234.27634Q120.0125 234.27634 119.29375 233.38571Q118.45 232.32321 118.45 229.90134ZM119.52812 229.90134Q119.52812 232.01071 120.02812 232.71384Q120.52812 233.41696 121.24687 233.41696Q121.98125 233.41696 122.46562 232.71384Q122.96562 232.01071 122.96562 229.90134Q122.96562 227.77634 122.46562 227.08884Q121.98125 226.38571 121.23125 226.38571Q120.5125 226.38571 120.075 226.99509Q119.52812 227.77634 119.52812 229.90134ZM125.45 229.90134Q125.45 228.37009 125.7625 227.44821Q126.075 226.51071 126.68437 226.01071Q127.30937 225.51071 128.24687 225.51071Q128.93437 225.51071 129.45 225.79196Q129.98125 226.07321 130.325 226.60446Q130.66875 227.12009 130.85625 227.87009Q131.04375 228.62009 131.04375 229.90134Q131.04375 231.41696 130.73125 232.33884Q130.43437 233.26071 129.80937 233.77634Q129.2 234.27634 128.24687 234.27634Q127.0125 234.27634 126.29375 233.38571Q125.45 232.32321 125.45 229.90134ZM126.52812 229.90134Q126.52812 232.01071 127.02812 232.71384Q127.52812 233.41696 128.24687 233.41696Q128.98125 233.41696 129.46562 232.71384Q129.96562 232.01071 129.96562 229.90134Q129.96562 227.77634 129.46562 227.08884Q128.98125 226.38571 128.23125 226.38571Q127.5125 226.38571 127.075 226.99509Q126.52812 227.77634 126.52812 229.90134Z" fill-rule="nonzero"/><path fill="#000000" d="M91.41875 154.85953L90.37187 154.85953L90.37187 148.14078Q89.98125 148.50015 89.35625 148.87515Q88.74687 149.23453 88.2625 149.4064L88.2625 148.39078Q89.1375 147.9689 89.79375 147.39078Q90.46562 146.79703 90.74687 146.23453L91.41875 146.23453L91.41875 154.85953ZM94.45 150.62515Q94.45 149.0939 94.7625 148.17203Q95.075 147.23453 95.68437 146.73453Q96.30937 146.23453 97.24687 146.23453Q97.93437 146.23453 98.45 146.51578Q98.98125 146.79703 99.325 147.32828Q99.66875 147.8439 99.85625 148.5939Q100.04375 149.3439 100.04375 150.62515Q100.04375 152.14078 99.73125 153.06265Q99.43437 153.98453 98.80937 154.50015Q98.2 155.00015 97.24687 155.00015Q96.0125 155.00015 95.29375 154.10953Q94.45 153.04703 94.45 150.62515ZM95.52812 150.62515Q95.52812 152.73453 96.02812 153.43765Q96.52812 154.14078 97.24687 154.14078Q97.98125 154.14078 98.46562 153.43765Q98.96562 152.73453 98.96562 150.62515Q98.96562 148.50015 98.46562 147.81265Q97.98125 147.10953 97.23125 147.10953Q96.5125 147.10953 96.075 147.7189Q95.52812 148.50015 95.52812 150.62515ZM101.45 150.62515Q101.45 149.0939 101.7625 148.17203Q102.075 147.23453 102.68437 146.73453Q103.30937 146.23453 104.24687 146.23453Q104.93437 146.23453 105.45 146.51578Q105.98125 146.79703 106.325 147.32828Q106.66875 147.8439 106.85625 148.5939Q107.04375 149.3439 107.04375 150.62515Q107.04375 152.14078 106.73125 153.06265Q106.43437 153.98453 105.80937 154.50015Q105.2 155.00015 104.24687 155.00015Q103.0125 155.00015 102.29375 154.10953Q101.45 153.04703 101.45 150.62515ZM102.52812 150.62515Q102.52812 152.73453 103.02812 153.43765Q103.52812 154.14078 104.24687 154.14078Q104.98125 154.14078 105.46562 153.43765Q105.96562 152.73453 105.96562 150.62515Q105.96562 148.50015 105.46562 147.81265Q104.98125 147.10953 104.23125 147.10953Q103.5125 147.10953 103.075 147.7189Q102.52812 148.50015 102.52812 150.62515ZM109.0125 154.85953L109.0125 153.6564L110.21562 153.6564L110.21562 154.85953Q110.21562 155.51578 109.98125 155.92203Q109.74687 156.3439 109.24687 156.56265L108.95 156.10953Q109.27812 155.9689 109.43437 155.67203Q109.59062 155.39078 109.62187 154.85953L109.0125 154.85953ZM111.45 150.62515Q111.45 149.0939 111.7625 148.17203Q112.075 147.23453 112.68437 146.73453Q113.30937 146.23453 114.24687 146.23453Q114.93437 146.23453 115.45 146.51578Q115.98125 146.79703 116.325 147.32828Q116.66875 147.8439 116.85625 148.5939Q117.04375 149.3439 117.04375 150.62515Q117.04375 152.14078 116.73125 153.06265Q116.43437 153.98453 115.80937 154.50015Q115.2 155.00015 114.24687 155.00015Q113.0125 155.00015 112.29375 154.10953Q111.45 153.04703 111.45 150.62515ZM112.52812 150.62515Q112.52812 152.73453 113.02812 153.43765Q113.52812 154.14078 114.24687 154.14078Q114.98125 154.14078 115.46562 153.43765Q115.96562 152.73453 115.96562 150.62515Q115.96562 148.50015 115.46562 147.81265Q114.98125 147.10953 114.23125 147.10953Q113.5125 147.10953 113.075 147.7189Q112.52812 148.50015 112.52812 150.62515ZM118.45 150.62515Q118.45 149.0939 118.7625 148.17203Q119.075 147.23453 119.68437 146.73453Q120.30937 146.23453 121.24687 146.23453Q121.93437 146.23453 122.45 146.51578Q122.98125 146.79703 123.325 147.32828Q123.66875 147.8439 123.85625 148.5939Q124.04375 149.3439 124.04375 150.62515Q124.04375 152.14078 123.73125 153.06265Q123.43437 153.98453 122.80937 154.50015Q122.2 155.00015 121.24687 155.00015Q120.0125 155.00015 119.29375 154.10953Q118.45 153.04703 118.45 150.62515ZM119.52812 150.62515Q119.52812 152.73453 120.02812 153.43765Q120.52812 154.14078 121.24687 154.14078Q121.98125 154.14078 122.46562 153.43765Q122.96562 152.73453 122.96562 150.62515Q122.96562 148.50015 122.46562 147.81265Q121.98125 147.10953 121.23125 147.10953Q120.5125 147.10953 120.075 147.7189Q119.52812 148.50015 119.52812 150.62515ZM125.45 150.62515Q125.45 149.0939 125.7625 148.17203Q126.075 147.23453 126.68437 146.73453Q127.30937 146.23453 128.24687 146.23453Q128.93437 146.23453 129.45 146.51578Q129.98125 146.79703 130.325 147.32828Q130.66875 147.8439 130.85625 148.5939Q131.04375 149.3439 131.04375 150.62515Q131.04375 152.14078 130.73125 153.06265Q130.43437 153.98453 129.80937 154.50015Q129.2 155.00015 128.24687 155.00015Q127.0125 155.00015 126.29375 154.10953Q125.45 153.04703 125.45 150.62515ZM126.52812 150.62515Q126.52812 152.73453 127.02812 153.43765Q127.52812 154.14078 128.24687 154.14078Q128.98125 154.14078 129.46562 153.43765Q129.96562 152.73453 129.96562 150.62515Q129.96562 148.50015 129.46562 147.81265Q128.98125 147.10953 128.23125 147.10953Q127.5125 147.10953 127.075 147.7189Q126.52812 148.50015 126.52812 150.62515Z" fill-rule="nonzero"/><path fill="#000000" d="M74.41875 75.583336L73.37187 75.583336L73.37187 68.864586Q72.98125 69.22396 72.35625 69.59896Q71.74687 69.958336 71.2625 70.13021L71.2625 69.114586Q72.1375 68.69271 72.79375 68.114586Q73.46562 67.520836 73.74687 66.958336L74.41875 66.958336L74.41875 75.583336ZM77.45 71.34896Q77.45 69.81771 77.7625 68.895836Q78.075 67.958336 78.68437 67.458336Q79.30937 66.958336 80.24687 66.958336Q80.93437 66.958336 81.45 67.239586Q81.98125 67.520836 82.325 68.052086Q82.66875 68.56771 82.85625 69.31771Q83.04375 70.06771 83.04375 71.34896Q83.04375 72.864586 82.73125 73.78646Q82.43437 74.708336 81.80937 75.22396Q81.2 75.72396 80.24687 75.72396Q79.0125 75.72396 78.29375 74.833336Q77.45 73.770836 77.45 71.34896ZM78.52812 71.34896Q78.52812 73.458336 79.02812 74.16146Q79.52812 74.864586 80.24687 74.864586Q80.98125 74.864586 81.46562 74.16146Q81.96562 73.458336 81.96562 71.34896Q81.96562 69.22396 81.46562 68.53646Q80.98125 67.833336 80.23125 67.833336Q79.5125 67.833336 79.075 68.44271Q78.52812 69.22396 78.52812 71.34896ZM85.0125 75.583336L85.0125 74.38021L86.21562 74.38021L86.21562 75.583336Q86.21562 76.239586 85.98125 76.645836Q85.74687 77.06771 85.24687 77.28646L84.95 76.833336Q85.27812 76.69271 85.43437 76.395836Q85.59062 76.114586 85.62187 75.583336L85.0125 75.583336ZM87.45 71.34896Q87.45 69.81771 87.7625 68.895836Q88.075 67.958336 88.68437 67.458336Q89.30937 66.958336 90.24687 66.958336Q90.93437 66.958336 91.45 67.239586Q91.98125 67.520836 92.325 68.052086Q92.66875 68.56771 92.85625 69.31771Q93.04375 70.06771 93.04375 71.34896Q93.04375 72.864586 92.73125 73.78646Q92.43437 74.708336 91.80937 75.22396Q91.2 75.72396 90.24687 75.72396Q89.0125 75.72396 88.29375 74.833336Q87.45 73.770836 87.45 71.34896ZM88.52812 71.34896Q88.52812 73.458336 89.02812 74.16146Q89.52812 74.864586 90.24687 74.864586Q90.98125 74.864586 91.46562 74.16146Q91.96562 73.458336 91.96562 71.34896Q91.96562 69.22396 91.46562 68.53646Q90.98125 67.833336 90.23125 67.833336Q89.5125 67.833336 89.075 68.44271Q88.52812 69.22396 88.52812 71.34896ZM94.45 71.34896Q94.45 69.81771 94.7625 68.895836Q95.075 67.958336 95.68437 67.458336Q96.30937 66.958336 97.24687 66.958336Q97.93437 66.958336 98.45 67.239586Q98.98125 67.520836 99.325 68.052086Q99.66875 68.56771 99.85625 69.31771Q100.04375 70.06771 100.04375 71.34896Q100.04375 72.864586 99.73125 73.78646Q99.43437 74.708336 98.80937 75.22396Q98.2 75.72396 97.24687 75.72396Q96.0125 75.72396 95.29375 74.833336Q94.45 73.770836 94.45 71.34896ZM95.52812 71.34896Q95.52812 73.458336 96.02812 74.16146Q96.52812 74.864586 97.24687 74.864586Q97.98125 74.864586 98.46562 74.16146Q98.96562 73.458336 98.96562 71.34896Q98.96562 69.22396 98.46562 68.53646Q97.98125 67.833336 97.23125 67.833336Q96.5125 67.833336 96.075 68.44271Q95.52812 69.22396 95.52812 71.34896ZM101.45 71.34896Q101.45 69.81771 101.7625 68.895836Q102.075 67.958336 102.68437 67.458336Q103.30937 66.958336 104.24687 66.958336Q104.93437 66.958336 105.45 67.239586Q105.98125 67.520836 106.325 68.052086Q106.66875 68.56771 106.85625 69.31771Q107.04375 70.06771 107.04375 71.34896Q107.04375 72.864586 106.73125 73.78646Q106.43437 74.708336 105.80937 75.22396Q105.2 75.72396 104.24687 75.72396Q103.0125 75.72396 102.29375 74.833336Q101.45 73.770836 101.45 71.34896ZM102.52812 71.34896Q102.52812 73.458336 103.02812 74.16146Q103.52812 74.864586 104.24687 74.864586Q104.98125 74.864586 105.46562 74.16146Q105.96562 73.458336 105.96562 71.34896Q105.96562 69.22396 105.46562 68.53646Q104.98125 67.833336 104.23125 67.833336Q103.5125 67.833336 103.075 68.44271Q102.52812 69.22396 102.52812 71.34896ZM109.0125 75.583336L109.0125 74.38021L110.21562 74.38021L110.21562 75.583336Q110.21562 76.239586 109.98125 76.645836Q109.74687 77.06771 109.24687 77.28646L108.95 76.833336Q109.27812 76.69271 109.43437 76.395836Q109.59062 76.114586 109.62187 75.583336L109.0125 75.583336ZM111.45 71.34896Q111.45 69.81771 111.7625 68.895836Q112.075 67.958336 112.68437 67.458336Q113.30937 66.958336 114.24687 66.958336Q114.93437 66.958336 115.45 67.239586Q115.98125 67.520836 116.325 68.052086Q116.66875 68.56771 116.85625 69.31771Q117.04375 70.06771 117.04375 71.34896Q117.04375 72.864586 116.73125 73.78646Q116.43437 74.708336 115.80937 75.22396Q115.2 75.72396 114.24687 75.72396Q113.0125 75.72396 112.29375 74.833336Q111.45 73.770836 111.45 71.34896ZM112.52812 71.34896Q112.52812 73.458336 113.02812 74.16146Q113.52812 74.864586 114.24687 74.864586Q114.98125 74.864586 115.46562 74.16146Q115.96562 73.458336 115.96562 71.34896Q115.96562 69.22396 115.46562 68.53646Q114.98125 67.833336 114.23125 67.833336Q113.5125 67.833336 113.075 68.44271Q112.52812 69.22396 112.52812 71.34896ZM118.45 71.34896Q118.45 69.81771 118.7625 68.895836Q119.075 67.958336 119.68437 67.458336Q120.30937 66.958336 121.24687 66.958336Q121.93437 66.958336 122.45 67.239586Q122.98125 67.520836 123.325 68.052086Q123.66875 68.56771 123.85625 69.31771Q124.04375 70.06771 124.04375 71.34896Q124.04375 72.864586 123.73125 73.78646Q123.43437 74.708336 122.80937 75.22396Q122.2 75.72396 121.24687 75.72396Q120.0125 75.72396 119.29375 74.833336Q118.45 73.770836 118.45 71.34896ZM119.52812 71.34896Q119.52812 73.458336 120.02812 74.16146Q120.52812 74.864586 121.24687 74.864586Q121.98125 74.864586 122.46562 74.16146Q122.96562 73.458336 122.96562 71.34896Q122.96562 69.22396 122.46562 68.53646Q121.98125 67.833336 121.23125 67.833336Q120.5125 67.833336 120.075 68.44271Q119.52812 69.22396 119.52812 71.34896ZM125.45 71.34896Q125.45 69.81771 125.7625 68.895836Q126.075 67.958336 126.68437 67.458336Q127.30937 66.958336 128.24687 66.958336Q128.93437 66.958336 129.45 67.239586Q129.98125 67.520836 130.325 68.052086Q130.66875 68.56771 130.85625 69.31771Q131.04375 70.06771 131.04375 71.34896Q131.04375 72.864586 130.73125 73.78646Q130.43437 74.708336 129.80937 75.22396Q129.2 75.72396 128.24687 75.72396Q127.0125 75.72396 126.29375 74.833336Q125.45 73.770836 125.45 71.34896ZM126.52812 71.34896Q126.52812 73.458336 127.02812 74.16146Q127.52812 74.864586 128.24687 74.864586Q128.98125 74.864586 129.46562 74.16146Q129.96562 73.458336 129.96562 71.34896Q129.96562 69.22396 129.46562 68.53646Q128.98125 67.833336 128.23125 67.833336Q127.5125 67.833336 127.075 68.44271Q126.52812 69.22396 126.52812 71.34896Z" fill-rule="nonzero"/><path fill="#000000" d="M227.29634 366.05L226.24947 366.05L226.24947 359.33124Q225.85884 359.6906 225.23384 360.0656Q224.62447 360.425 224.14009 360.59686L224.14009 359.58124Q225.01509 359.15936 225.67134 358.58124Q226.34322 357.9875 226.62447 357.425L227.29634 357.425L227.29634 366.05ZM230.32759 361.8156Q230.32759 360.28436 230.64009 359.3625Q230.95259 358.425 231.56197 357.925Q232.18697 357.425 233.12447 357.425Q233.81197 357.425 234.32759 357.70624Q234.85884 357.9875 235.20259 358.51874Q235.54634 359.03436 235.73384 359.78436Q235.92134 360.53436 235.92134 361.8156Q235.92134 363.33124 235.60884 364.2531Q235.31197 365.175 234.68697 365.6906Q234.07759 366.1906 233.12447 366.1906Q231.89009 366.1906 231.17134 365.3Q230.32759 364.2375 230.32759 361.8156ZM231.40572 361.8156Q231.40572 363.925 231.90572 364.6281Q232.40572 365.33124 233.12447 365.33124Q233.85884 365.33124 234.34322 364.6281Q234.84322 363.925 234.84322 361.8156Q234.84322 359.6906 234.34322 359.0031Q233.85884 358.3 233.10884 358.3Q232.39009 358.3 231.95259 358.90936Q231.40572 359.6906 231.40572 361.8156Z" fill-rule="nonzero"/><path fill="#000000" d="M359.9113 366.05L358.8644 366.05L358.8644 359.33124Q358.4738 359.6906 357.8488 360.0656Q357.2394 360.425 356.75504 360.59686L356.75504 359.58124Q357.63004 359.15936 358.2863 358.58124Q358.95816 357.9875 359.2394 357.425L359.9113 357.425L359.9113 366.05ZM362.94254 361.8156Q362.94254 360.28436 363.25504 359.3625Q363.56754 358.425 364.1769 357.925Q364.8019 357.425 365.7394 357.425Q366.4269 357.425 366.94254 357.70624Q367.4738 357.9875 367.81754 358.51874Q368.1613 359.03436 368.3488 359.78436Q368.5363 360.53436 368.5363 361.8156Q368.5363 363.33124 368.2238 364.2531Q367.9269 365.175 367.3019 365.6906Q366.69254 366.1906 365.7394 366.1906Q364.50504 366.1906 363.7863 365.3Q362.94254 364.2375 362.94254 361.8156ZM364.02066 361.8156Q364.02066 363.925 364.52066 364.6281Q365.02066 365.33124 365.7394 365.33124Q366.4738 365.33124 366.95816 364.6281Q367.45816 363.925 367.45816 361.8156Q367.45816 359.6906 366.95816 359.0031Q366.4738 358.3 365.7238 358.3Q365.00504 358.3 364.56754 358.90936Q364.02066 359.6906 364.02066 361.8156ZM369.94254 361.8156Q369.94254 360.28436 370.25504 359.3625Q370.56754 358.425 371.1769 357.925Q371.8019 357.425 372.7394 357.425Q373.4269 357.425 373.94254 357.70624Q374.4738 357.9875 374.81754 358.51874Q375.1613 359.03436 375.3488 359.78436Q375.5363 360.53436 375.5363 361.8156Q375.5363 363.33124 375.2238 364.2531Q374.9269 365.175 374.3019 365.6906Q373.69254 366.1906 372.7394 366.1906Q371.50504 366.1906 370.7863 365.3Q369.94254 364.2375 369.94254 361.8156ZM371.02066 361.8156Q371.02066 363.925 371.52066 364.6281Q372.02066 365.33124 372.7394 365.33124Q373.4738 365.33124 373.95816 364.6281Q374.45816 363.925 374.45816 361.8156Q374.45816 359.6906 373.95816 359.0031Q373.4738 358.3 372.7238 358.3Q372.00504 358.3 371.56754 358.90936Q371.02066 359.6906 371.02066 361.8156Z" fill-rule="nonzero"/><path fill="#000000" d="M491.0262 366.05L489.97934 366.05L489.97934 359.33124Q489.5887 359.6906 488.9637 360.0656Q488.35434 360.425 487.86996 360.59686L487.86996 359.58124Q488.74496 359.15936 489.4012 358.58124Q490.0731 357.9875 490.35434 357.425L491.0262 357.425L491.0262 366.05ZM494.61996 366.05L494.61996 364.84686L495.8231 364.84686L495.8231 366.05Q495.8231 366.70624 495.5887 367.1125Q495.35434 367.53436 494.85434 367.7531L494.55746 367.3Q494.8856 367.15936 495.04184 366.8625Q495.1981 366.58124 495.22934 366.05L494.61996 366.05ZM497.05746 361.8156Q497.05746 360.28436 497.36996 359.3625Q497.68246 358.425 498.29184 357.925Q498.91684 357.425 499.85434 357.425Q500.54184 357.425 501.05746 357.70624Q501.5887 357.9875 501.93246 358.51874Q502.2762 359.03436 502.4637 359.78436Q502.6512 360.53436 502.6512 361.8156Q502.6512 363.33124 502.3387 364.2531Q502.04184 365.175 501.41684 365.6906Q500.80746 366.1906 499.85434 366.1906Q498.61996 366.1906 497.9012 365.3Q497.05746 364.2375 497.05746 361.8156ZM498.1356 361.8156Q498.1356 363.925 498.6356 364.6281Q499.1356 365.33124 499.85434 365.33124Q500.5887 365.33124 501.0731 364.6281Q501.5731 363.925 501.5731 361.8156Q501.5731 359.6906 501.0731 359.0031Q500.5887 358.3 499.8387 358.3Q499.11996 358.3 498.68246 358.90936Q498.1356 359.6906 498.1356 361.8156ZM504.05746 361.8156Q504.05746 360.28436 504.36996 359.3625Q504.68246 358.425 505.29184 357.925Q505.91684 357.425 506.85434 357.425Q507.54184 357.425 508.05746 357.70624Q508.5887 357.9875 508.93246 358.51874Q509.2762 359.03436 509.4637 359.78436Q509.6512 360.53436 509.6512 361.8156Q509.6512 363.33124 509.3387 364.2531Q509.04184 365.175 508.41684 365.6906Q507.80746 366.1906 506.85434 366.1906Q505.61996 366.1906 504.9012 365.3Q504.05746 364.2375 504.05746 361.8156ZM505.1356 361.8156Q505.1356 363.925 505.6356 364.6281Q506.1356 365.33124 506.85434 365.33124Q507.5887 365.33124 508.0731 364.6281Q508.5731 363.925 508.5731 361.8156Q508.5731 359.6906 508.0731 359.0031Q507.5887 358.3 506.8387 358.3Q506.11996 358.3 505.68246 358.90936Q505.1356 359.6906 505.1356 361.8156ZM511.05746 361.8156Q511.05746 360.28436 511.36996 359.3625Q511.68246 358.425 512.2919 357.925Q512.9169 357.425 513.8544 357.425Q514.5419 357.425 515.0575 357.70624Q515.58875 357.9875 515.9325 358.51874Q516.27625 359.03436 516.46375 359.78436Q516.65125 360.53436 516.65125 361.8156Q516.65125 363.33124 516.33875 364.2531Q516.0419 365.175 515.4169 365.6906Q514.8075 366.1906 513.8544 366.1906Q512.62 366.1906 511.9012 365.3Q511.05746 364.2375 511.05746 361.8156ZM512.1356 361.8156Q512.1356 363.925 512.6356 364.6281Q513.1356 365.33124 513.8544 365.33124Q514.58875 365.33124 515.0731 364.6281Q515.5731 363.925 515.5731 361.8156Q515.5731 359.6906 515.0731 359.0031Q514.58875 358.3 513.83875 358.3Q513.12 358.3 512.6825 358.90936Q512.1356 359.6906 512.1356 361.8156Z" fill-rule="nonzero"/><path fill="#000000" d="M623.6412 366.05L622.5943 366.05L622.5943 359.33124Q622.2037 359.6906 621.5787 360.0656Q620.9693 360.425 620.4849 360.59686L620.4849 359.58124Q621.3599 359.15936 622.0162 358.58124Q622.68805 357.9875 622.9693 357.425L623.6412 357.425L623.6412 366.05ZM626.6724 361.8156Q626.6724 360.28436 626.9849 359.3625Q627.2974 358.425 627.9068 357.925Q628.5318 357.425 629.4693 357.425Q630.1568 357.425 630.6724 357.70624Q631.2037 357.9875 631.5474 358.51874Q631.8912 359.03436 632.0787 359.78436Q632.2662 360.53436 632.2662 361.8156Q632.2662 363.33124 631.9537 364.2531Q631.6568 365.175 631.0318 365.6906Q630.4224 366.1906 629.4693 366.1906Q628.2349 366.1906 627.5162 365.3Q626.6724 364.2375 626.6724 361.8156ZM627.75055 361.8156Q627.75055 363.925 628.25055 364.6281Q628.75055 365.33124 629.4693 365.33124Q630.2037 365.33124 630.68805 364.6281Q631.18805 363.925 631.18805 361.8156Q631.18805 359.6906 630.68805 359.0031Q630.2037 358.3 629.4537 358.3Q628.7349 358.3 628.2974 358.90936Q627.75055 359.6906 627.75055 361.8156ZM634.2349 366.05L634.2349 364.84686L635.43805 364.84686L635.43805 366.05Q635.43805 366.70624 635.2037 367.1125Q634.9693 367.53436 634.4693 367.7531L634.1724 367.3Q634.50055 367.15936 634.6568 366.8625Q634.81305 366.58124 634.8443 366.05L634.2349 366.05ZM636.6724 361.8156Q636.6724 360.28436 636.9849 359.3625Q637.2974 358.425 637.9068 357.925Q638.5318 357.425 639.4693 357.425Q640.1568 357.425 640.6724 357.70624Q641.2037 357.9875 641.5474 358.51874Q641.8912 359.03436 642.0787 359.78436Q642.2662 360.53436 642.2662 361.8156Q642.2662 363.33124 641.9537 364.2531Q641.6568 365.175 641.0318 365.6906Q640.4224 366.1906 639.4693 366.1906Q638.2349 366.1906 637.5162 365.3Q636.6724 364.2375 636.6724 361.8156ZM637.75055 361.8156Q637.75055 363.925 638.25055 364.6281Q638.75055 365.33124 639.4693 365.33124Q640.2037 365.33124 640.68805 364.6281Q641.18805 363.925 641.18805 361.8156Q641.18805 359.6906 640.68805 359.0031Q640.2037 358.3 639.4537 358.3Q638.7349 358.3 638.2974 358.90936Q637.75055 359.6906 637.75055 361.8156ZM643.6724 361.8156Q643.6724 360.28436 643.9849 359.3625Q644.2974 358.425 644.9068 357.925Q645.5318 357.425 646.4693 357.425Q647.1568 357.425 647.6724 357.70624Q648.2037 357.9875 648.5474 358.51874Q648.8912 359.03436 649.0787 359.78436Q649.2662 360.53436 649.2662 361.8156Q649.2662 363.33124 648.9537 364.2531Q648.6568 365.175 648.0318 365.6906Q647.4224 366.1906 646.4693 366.1906Q645.2349 366.1906 644.5162 365.3Q643.6724 364.2375 643.6724 361.8156ZM644.75055 361.8156Q644.75055 363.925 645.25055 364.6281Q645.75055 365.33124 646.4693 365.33124Q647.2037 365.33124 647.68805 364.6281Q648.18805 363.925 648.18805 361.8156Q648.18805 359.6906 647.68805 359.0031Q647.2037 358.3 646.4537 358.3Q645.7349 358.3 645.2974 358.90936Q644.75055 359.6906 644.75055 361.8156ZM650.6724 361.8156Q650.6724 360.28436 650.9849 359.3625Q651.2974 358.425 651.9068 357.925Q652.5318 357.425 653.4693 357.425Q654.1568 357.425 654.6724 357.70624Q655.2037 357.9875 655.5474 358.51874Q655.8912 359.03436 656.0787 359.78436Q656.2662 360.53436 656.2662 361.8156Q656.2662 363.33124 655.9537 364.2531Q655.6568 365.175 655.0318 365.6906Q654.4224 366.1906 653.4693 366.1906Q652.2349 366.1906 651.5162 365.3Q650.6724 364.2375 650.6724 361.8156ZM651.75055 361.8156Q651.75055 363.925 652.25055 364.6281Q652.75055 365.33124 653.4693 365.33124Q654.2037 365.33124 654.68805 364.6281Q655.18805 363.925 655.18805 361.8156Q655.18805 359.6906 654.68805 359.0031Q654.2037 358.3 653.4537 358.3Q652.7349 358.3 652.2974 358.90936Q651.75055 359.6906 651.75055 361.8156Z" fill-rule="nonzero"/><path fill="#757575" d="M272.75 43.95L272.75 26.7625L278.3125 26.7625Q281.48438 26.7625 282.4375 27.028126Q283.92188 27.41875 284.90625 28.715626Q285.90625 29.996876 285.90625 32.059376Q285.90625 33.6375 285.32812 34.715626Q284.76562 35.79375 283.875 36.41875Q282.98438 37.028126 282.07812 37.215626Q280.82812 37.465626 278.48438 37.465626L276.21875 37.465626L276.21875 43.95L272.75 43.95ZM276.21875 29.66875L276.21875 34.54375L278.10938 34.54375Q280.17188 34.54375 280.85938 34.278126Q281.54688 34.0125 281.9375 33.434376Q282.32812 32.85625 282.32812 32.10625Q282.32812 31.16875 281.78125 30.559376Q281.23438 29.95 280.39062 29.79375Q279.76562 29.66875 277.89062 29.66875L276.21875 29.66875ZM295.9375 39.98125L299.21875 40.54375Q298.57812 42.340626 297.20312 43.29375Q295.84375 44.23125 293.79688 44.23125Q290.54688 44.23125 289.0 42.10625Q287.76562 40.403126 287.76562 37.825Q287.76562 34.73125 289.375 32.98125Q291.0 31.215626 293.46875 31.215626Q296.25 31.215626 297.84375 33.059376Q299.45312 34.8875 299.39062 38.66875L291.14062 38.66875Q291.17188 40.1375 291.9375 40.95Q292.70312 41.7625 293.82812 41.7625Q294.60938 41.7625 295.125 41.340626Q295.65625 40.91875 295.9375 39.98125ZM296.125 36.653126Q296.07812 35.23125 295.375 34.496876Q294.67188 33.746876 293.67188 33.746876Q292.59375 33.746876 291.89062 34.528126Q291.1875 35.309376 291.20312 36.653126L296.125 36.653126ZM304.875 43.95L301.57812 43.95L301.57812 31.496876L304.64062 31.496876L304.64062 33.278126Q305.42188 32.0125 306.04688 31.621876Q306.6875 31.215626 307.48438 31.215626Q308.60938 31.215626 309.64062 31.840626L308.625 34.715626Q307.79688 34.16875 307.07812 34.16875Q306.39062 34.16875 305.90625 34.559376Q305.42188 34.934376 305.14062 35.934376Q304.875 36.934376 304.875 40.10625L304.875 43.95ZM309.28125 31.496876L311.10938 31.496876L311.10938 30.559376Q311.10938 28.996876 311.4375 28.23125Q311.78125 27.45 312.67188 26.965626Q313.57812 26.48125 314.9375 26.48125Q316.34375 26.48125 317.70312 26.903126L317.25 29.2Q316.46875 29.0125 315.73438 29.0125Q315.03125 29.0125 314.71875 29.340626Q314.40625 29.66875 314.40625 30.621876L314.40625 31.496876L316.85938 31.496876L316.85938 34.090626L314.40625 34.090626L314.40625 43.95L311.10938 43.95L311.10938 34.090626L309.28125 34.090626L309.28125 31.496876ZM317.96875 37.54375Q317.96875 35.903126 318.76562 34.371876Q319.57812 32.840626 321.0625 32.028126Q322.54688 31.215626 324.375 31.215626Q327.20312 31.215626 329.0 33.059376Q330.8125 34.8875 330.8125 37.684376Q330.8125 40.5125 328.98438 42.371876Q327.15625 44.23125 324.39062 44.23125Q322.6875 44.23125 321.125 43.465626Q319.57812 42.684376 318.76562 41.2Q317.96875 39.7 317.96875 37.54375ZM321.34375 37.73125Q321.34375 39.575 322.21875 40.559376Q323.09375 41.54375 324.39062 41.54375Q325.67188 41.54375 326.54688 40.559376Q327.42188 39.575 327.42188 37.7Q327.42188 35.871876 326.54688 34.8875Q325.67188 33.903126 324.39062 33.903126Q323.09375 33.903126 322.21875 34.8875Q321.34375 35.871876 321.34375 37.73125ZM336.875 43.95L333.57812 43.95L333.57812 31.496876L336.64062 31.496876L336.64062 33.278126Q337.42188 32.0125 338.04688 31.621876Q338.6875 31.215626 339.48438 31.215626Q340.60938 31.215626 341.64062 31.840626L340.625 34.715626Q339.79688 34.16875 339.07812 34.16875Q338.39062 34.16875 337.90625 34.559376Q337.42188 34.934376 337.14062 35.934376Q336.875 36.934376 336.875 40.10625L336.875 43.95ZM342.48438 31.496876L345.51562 31.496876L345.51562 33.2Q347.14062 31.215626 349.39062 31.215626Q350.59375 31.215626 351.46875 31.715626Q352.34375 32.2 352.90625 33.2Q353.73438 32.2 354.67188 31.715626Q355.625 31.215626 356.70312 31.215626Q358.07812 31.215626 359.01562 31.778126Q359.96875 32.340626 360.4375 33.41875Q360.78125 34.215626 360.78125 35.996876L360.78125 43.95L357.48438 43.95L357.48438 36.840626Q357.48438 34.98125 357.15625 34.45Q356.6875 33.746876 355.75 33.746876Q355.04688 33.746876 354.4375 34.16875Q353.82812 34.590626 353.5625 35.403126Q353.29688 36.215626 353.29688 37.965626L353.29688 43.95L350.0 43.95L350.0 37.121876Q350.0 35.309376 349.82812 34.79375Q349.65625 34.2625 349.28125 34.0125Q348.90625 33.746876 348.28125 33.746876Q347.51562 33.746876 346.90625 34.153126Q346.29688 34.559376 346.03125 35.340626Q345.76562 36.10625 345.76562 37.903126L345.76562 43.95L342.48438 43.95L342.48438 31.496876ZM366.1875 35.29375L363.20312 34.7625Q363.70312 32.95 364.92188 32.090626Q366.15625 31.215626 368.59375 31.215626Q370.79688 31.215626 371.875 31.746876Q372.95312 32.2625 373.39062 33.075Q373.82812 33.871876 373.82812 36.0125L373.79688 39.85625Q373.79688 41.496876 373.95312 42.278126Q374.10938 43.059376 374.54688 43.95L371.28125 43.95Q371.15625 43.621876 370.96875 42.98125Q370.89062 42.684376 370.84375 42.590626Q370.0 43.403126 369.03125 43.825Q368.07812 44.23125 367.0 44.23125Q365.07812 44.23125 363.96875 43.184376Q362.85938 42.1375 362.85938 40.54375Q362.85938 39.496876 363.35938 38.66875Q363.85938 37.840626 364.76562 37.403126Q365.6875 36.965626 367.39062 36.6375Q369.70312 36.2 370.59375 35.825L370.59375 35.496876Q370.59375 34.54375 370.125 34.153126Q369.65625 33.746876 368.35938 33.746876Q367.46875 33.746876 366.96875 34.090626Q366.48438 34.434376 366.1875 35.29375ZM370.59375 37.965626Q369.95312 38.184376 368.57812 38.48125Q367.21875 38.7625 366.79688 39.04375Q366.15625 39.5125 366.15625 40.215626Q366.15625 40.903126 366.67188 41.403126Q367.1875 41.903126 367.98438 41.903126Q368.875 41.903126 369.67188 41.325Q370.28125 40.871876 370.46875 40.23125Q370.59375 39.809376 370.59375 38.621876L370.59375 37.965626ZM388.04688 43.95L384.75 43.95L384.75 37.590626Q384.75 35.575 384.53125 34.996876Q384.32812 34.403126 383.84375 34.075Q383.375 33.746876 382.71875 33.746876Q381.85938 33.746876 381.17188 34.215626Q380.5 34.684376 380.25 35.465626Q380.0 36.23125 380.0 38.309376L380.0 43.95L376.70312 43.95L376.70312 31.496876L379.76562 31.496876L379.76562 33.325Q381.39062 31.215626 383.85938 31.215626Q384.95312 31.215626 385.84375 31.621876Q386.75 32.0125 387.21875 32.621876Q387.6875 33.23125 387.85938 34.0125Q388.04688 34.778126 388.04688 36.215626L388.04688 43.95ZM402.57812 35.184376L399.32812 35.7625Q399.17188 34.79375 398.57812 34.309376Q398.0 33.809376 397.07812 33.809376Q395.84375 33.809376 395.10938 34.66875Q394.39062 35.5125 394.39062 37.496876Q394.39062 39.715626 395.125 40.6375Q395.875 41.54375 397.125 41.54375Q398.0625 41.54375 398.65625 41.0125Q399.26562 40.48125 399.5 39.184376L402.73438 39.73125Q402.23438 41.95 400.79688 43.090626Q399.375 44.23125 396.96875 44.23125Q394.25 44.23125 392.625 42.5125Q391.0 40.778126 391.0 37.73125Q391.0 34.653126 392.625 32.934376Q394.25 31.215626 397.03125 31.215626Q399.3125 31.215626 400.64062 32.2Q401.98438 33.184376 402.57812 35.184376ZM411.9375 39.98125L415.21875 40.54375Q414.57812 42.340626 413.20312 43.29375Q411.84375 44.23125 409.79688 44.23125Q406.54688 44.23125 405.0 42.10625Q403.76562 40.403126 403.76562 37.825Q403.76562 34.73125 405.375 32.98125Q407.0 31.215626 409.46875 31.215626Q412.25 31.215626 413.84375 33.059376Q415.45312 34.8875 415.39062 38.66875L407.14062 38.66875Q407.17188 40.1375 407.9375 40.95Q408.70312 41.7625 409.82812 41.7625Q410.60938 41.7625 411.125 41.340626Q411.65625 40.91875 411.9375 39.98125ZM412.125 36.653126Q412.07812 35.23125 411.375 34.496876Q410.67188 33.746876 409.67188 33.746876Q408.59375 33.746876 407.89062 34.528126Q407.1875 35.309376 407.20312 36.653126L412.125 36.653126ZM435.57812 35.184376L432.32812 35.7625Q432.17188 34.79375 431.57812 34.309376Q431.0 33.809376 430.07812 33.809376Q428.84375 33.809376 428.10938 34.66875Q427.39062 35.5125 427.39062 37.496876Q427.39062 39.715626 428.125 40.6375Q428.875 41.54375 430.125 41.54375Q431.0625 41.54375 431.65625 41.0125Q432.26562 40.48125 432.5 39.184376L435.73438 39.73125Q435.23438 41.95 433.79688 43.090626Q432.375 44.23125 429.96875 44.23125Q427.25 44.23125 425.625 42.5125Q424.0 40.778126 424.0 37.73125Q424.0 34.653126 425.625 32.934376Q427.25 31.215626 430.03125 31.215626Q432.3125 31.215626 433.64062 32.2Q434.98438 33.184376 435.57812 35.184376ZM441.0 26.7625L441.0 33.090626Q442.59375 31.215626 444.8125 31.215626Q445.95312 31.215626 446.85938 31.6375Q447.78125 32.059376 448.23438 32.715626Q448.70312 33.371876 448.875 34.16875Q449.04688 34.965626 449.04688 36.653126L449.04688 43.95L445.75 43.95L445.75 37.371876Q445.75 35.41875 445.5625 34.8875Q445.375 34.35625 444.89062 34.059376Q444.42188 33.746876 443.71875 33.746876Q442.89062 33.746876 442.25 34.153126Q441.60938 34.54375 441.29688 35.340626Q441.0 36.1375 441.0 37.715626L441.0 43.95L437.71875 43.95L437.71875 26.7625L441.0 26.7625ZM455.1875 35.29375L452.20312 34.7625Q452.70312 32.95 453.92188 32.090626Q455.15625 31.215626 457.59375 31.215626Q459.79688 31.215626 460.875 31.746876Q461.95312 32.2625 462.39062 33.075Q462.82812 33.871876 462.82812 36.0125L462.79688 39.85625Q462.79688 41.496876 462.95312 42.278126Q463.10938 43.059376 463.54688 43.95L460.28125 43.95Q460.15625 43.621876 459.96875 42.98125Q459.89062 42.684376 459.84375 42.590626Q459.0 43.403126 458.03125 43.825Q457.07812 44.23125 456.0 44.23125Q454.07812 44.23125 452.96875 43.184376Q451.85938 42.1375 451.85938 40.54375Q451.85938 39.496876 452.35938 38.66875Q452.85938 37.840626 453.76562 37.403126Q454.6875 36.965626 456.39062 36.6375Q458.70312 36.2 459.59375 35.825L459.59375 35.496876Q459.59375 34.54375 459.125 34.153126Q458.65625 33.746876 457.35938 33.746876Q456.46875 33.746876 455.96875 34.090626Q455.48438 34.434376 455.1875 35.29375ZM459.59375 37.965626Q458.95312 38.184376 457.57812 38.48125Q456.21875 38.7625 455.79688 39.04375Q455.15625 39.5125 455.15625 40.215626Q455.15625 40.903126 455.67188 41.403126Q456.1875 41.903126 456.98438 41.903126Q457.875 41.903126 458.67188 41.325Q459.28125 40.871876 459.46875 40.23125Q459.59375 39.809376 459.59375 38.621876L459.59375 37.965626ZM468.875 43.95L465.57812 43.95L465.57812 31.496876L468.64062 31.496876L468.64062 33.278126Q469.42188 32.0125 470.04688 31.621876Q470.6875 31.215626 471.48438 31.215626Q472.60938 31.215626 473.64062 31.840626L472.625 34.715626Q471.79688 34.16875 471.07812 34.16875Q470.39062 34.16875 469.90625 34.559376Q469.42188 34.934376 469.14062 35.934376Q468.875 36.934376 468.875 40.10625L468.875 43.95ZM480.4375 31.496876L480.4375 34.121876L478.1875 34.121876L478.1875 39.1375Q478.1875 40.66875 478.25 40.91875Q478.3125 41.16875 478.53125 41.340626Q478.76562 41.496876 479.09375 41.496876Q479.54688 41.496876 480.42188 41.184376L480.70312 43.73125Q479.54688 44.23125 478.09375 44.23125Q477.20312 44.23125 476.48438 43.934376Q475.78125 43.6375 475.4375 43.16875Q475.10938 42.684376 474.98438 41.871876Q474.875 41.29375 474.875 39.559376L474.875 34.121876L473.35938 34.121876L473.35938 31.496876L474.875 31.496876L474.875 29.028126L478.1875 27.10625L478.1875 31.496876L480.4375 31.496876Z" fill-rule="nonzero"/></svg>